# xmcd
#
# Track frame offsets:
#	150
#	63386
#	86204
#	134088
#	155012
#
# Disc length: 2430 seconds
#
# Revision: 0
# Processed by: cddbd v1.5.2PL0 Copyright (c) Steve Scherf et al.
# Submitted via: audiograbber 1.83.01
#
DISCID=47097c05
DTITLE=Grateful Dead - 93-06-22 Deer Creek Music Centre, Noblesville IN
DYEAR=1900
DGENRE=
TTITLE0=Space
TTITLE1=I Need A Miracle
TTITLE2=The Days Between
TTITLE3=Johnny B Goode
TTITLE4=Liberty
EXTD=
EXTT0=
EXTT1=
EXTT2=
EXTT3=
EXTT4=
PLAYORDER=
